<svg xmlns="http://www.w3.org/2000/svg" width="88.558mm" height="24.376mm" viewBox="0 0 251.029 69.096">
  <g>
    <g>
      <path d="M10.537,57.2V11.892H30.346A10.83,10.83,0,0,1,41.221,22.767v5.761a10.622,10.622,0,0,1-1.813,6.02,10.624,10.624,0,0,1,1.813,6.02v5.761A10.829,10.829,0,0,1,30.346,57.2Zm9.71-35.02v6.927a.515.515,0,0,0,.583.582h6.732a3.8,3.8,0,0,0,2.784-1.165,4.144,4.144,0,0,0,0-5.761A3.8,3.8,0,0,0,27.562,21.6H20.83A.515.515,0,0,0,20.247,22.184Zm0,17.8v6.926a.515.515,0,0,0,.583.582h6.732a3.8,3.8,0,0,0,2.784-1.165,4.144,4.144,0,0,0,0-5.761A3.8,3.8,0,0,0,27.562,39.4H20.83A.515.515,0,0,0,20.247,39.986Z" fill="#1d1d1b"/>
      <path d="M53.843,43.546a3.978,3.978,0,0,0,3.948,3.948h31.59V57.2H55.008A10.829,10.829,0,0,1,44.133,46.329V22.767A10.83,10.83,0,0,1,55.008,11.892H74.816V21.6H57.791a3.978,3.978,0,0,0-3.948,3.949v3.56a.514.514,0,0,0,.582.582h14.63V39.4H54.425q-.582,0-.582.648Zm46.8-31.654h9.71V57.2h-9.71l-10.1-20.52a.62.62,0,0,0-.712-.356.551.551,0,0,0-.453.615V42.7h-9.71V11.892h9.71l10.1,20.261a.516.516,0,0,0,.68.324.6.6,0,0,0,.485-.648Z" fill="#1d1d1b"/>
      <path d="M121.94,21.6H137.5v7.629H124.127a2.986,2.986,0,0,0-2.187.915,3.257,3.257,0,0,0,0,4.527,2.986,2.986,0,0,0,2.187.915h4.832a8.553,8.553,0,0,1,8.545,8.545V48.66a8.508,8.508,0,0,1-8.545,8.544H113.4V49.575h13.376a2.986,2.986,0,0,0,2.187-.915,3.255,3.255,0,0,0,0-4.527,2.986,2.986,0,0,0-2.187-.915H121.94a8.553,8.553,0,0,1-8.544-8.545V30.146A8.508,8.508,0,0,1,121.94,21.6Z" fill="#1d1d1b"/>
      <path d="M140.546,11.892h19.872a10.416,10.416,0,0,1,7.639,3.172,10.494,10.494,0,0,1,3.172,7.7V46.329A10.828,10.828,0,0,1,160.418,57.2H140.546Zm9.71,9.71V47.494h7.314a3.978,3.978,0,0,0,3.949-3.948V25.551A3.978,3.978,0,0,0,157.57,21.6Z" fill="#1d1d1b"/>
      <path d="M183.981,43.546a3.978,3.978,0,0,0,3.949,3.948h31.589V57.2H185.146a10.829,10.829,0,0,1-10.875-10.875V22.767a10.83,10.83,0,0,1,10.875-10.875h19.809V21.6H187.93a3.978,3.978,0,0,0-3.949,3.949v3.56a.515.515,0,0,0,.583.582h14.629V39.4H184.564q-.583,0-.583.648Zm46.8-31.654h9.709V57.2h-9.709l-10.1-20.52a.62.62,0,0,0-.712-.356.551.551,0,0,0-.453.615V42.7h-9.71V11.892h9.71l10.1,20.261a.515.515,0,0,0,.679.324.6.6,0,0,0,.486-.648Z" fill="#1d1d1b"/>
    </g>
    <path d="M121.589,11.892h-2.174a6.032,6.032,0,0,1,6.035-6.028V8.036A3.858,3.858,0,0,0,121.589,11.892Zm3.861,6.028V15.748a3.858,3.858,0,0,0,3.86-3.856h2.174A6.031,6.031,0,0,1,125.45,17.92Zm0-6.028V8.036a3.858,3.858,0,0,1,3.86,3.856Zm-3.861,0h3.861v3.856A3.858,3.858,0,0,1,121.589,11.892ZM125.45,5.96a5.932,5.932,0,1,0,5.937,5.932A5.941,5.941,0,0,0,125.45,5.96Zm0,12.057a6.126,6.126,0,1,1,6.131-6.125A6.135,6.135,0,0,1,125.45,18.017Z" fill="#1d1d1b"/>
    <g>
      <rect x="218.406" y="61.994" width="32.623" height="0.842" fill="#1e1e1c"/>
      <rect x="245.282" y="55.57" width="0.849" height="13.526" fill="#1e1e1c"/>
    </g>
    <g>
      <rect y="6.26" width="32.623" height="0.842" fill="#1e1e1c"/>
      <rect x="4.899" width="0.849" height="13.526" fill="#1e1e1c"/>
    </g>
  </g>
</svg>
